<svg xmlns="http://www.w3.org/2000/svg" fill="none" viewBox="0 0 18 18" height="18" width="18">
<rect stroke-width="0.47" stroke="black" rx="8.765" height="17.53" width="17.53" y="0.235" x="0.235"></rect>
<path fill="#000001" d="M13.9997 10.1445H13.5693V10.572H13.9997V10.1445Z"></path>
<path fill="#000001" d="M13.5701 10.5703H13.1426V10.9978H13.5701V10.5703Z"></path>
<path fill="#000001" d="M13.5701 9.71387H13.1426V10.1442H13.5701V9.71387Z"></path>
<path fill="#000001" d="M13.1433 10.998H12.7158V11.4284H13.1433V10.998Z"></path>
<path fill="#000001" d="M13.1433 9.28613H12.7158V9.71364H13.1433V9.28613Z"></path>
<path fill="#000001" d="M12.7155 11.4287H12.2852V11.8562H12.7155V11.4287Z"></path>
<path fill="#000001" d="M12.7155 8.8584H12.2852V9.2859H12.7155V8.8584Z"></path>
<path fill="#000001" d="M12.284 11.8574H11.8564V12.2877H12.284V11.8574Z"></path>
<path fill="#000001" d="M12.284 8.42871H11.8564V8.85903H12.284V8.42871Z"></path>
<path fill="#000001" d="M11.8572 12.2881H11.4297V12.7156H11.8572V12.2881Z"></path>
<path fill="#000001" d="M11.8572 8.00098H11.4297V8.42848H11.8572V8.00098Z"></path>
<path fill="#000001" d="M11.4303 12.7148H11V13.1423H11.4303V12.7148Z"></path>
<path fill="#000001" d="M11.4303 10.998H11V11.4284H11.4303V10.998Z"></path>
<path fill="#000001" d="M11.4303 9.71387H11V10.5717H11.4303V9.71387Z"></path>
<path fill="#000001" d="M11.4303 7.57031H11V8.00063H11.4303V7.57031Z"></path>
<path fill="#000001" d="M10.9988 13.1426H10.5713V13.5729H10.9988V13.1426Z"></path>
<path fill="#000001" d="M10.9988 10.5703H10.5713V10.9978H10.9988V10.5703Z"></path>
<path fill="#000001" d="M10.9985 9.28613H10.1406V9.71364H10.9985V9.28613Z"></path>
<path fill="#000001" d="M10.9988 7.14258H10.5713V7.57008H10.9988V7.14258Z"></path>
<path fill="#000001" d="M10.571 13.5723H10.1406V13.9998H10.571V13.5723Z"></path>
<path fill="#000001" d="M10.571 10.1445H10.1406V10.572H10.571V10.1445Z"></path>
<path fill="#000001" d="M10.571 6.71582H10.1406V7.14332H10.571V6.71582Z"></path>
<path fill="#000001" d="M10.1404 13.1426H9.71289V13.5729H10.1404V13.1426Z"></path>
<path fill="#000001" d="M10.5707 10.998H9.71289V11.4284H10.5707V10.998Z"></path>
<path fill="#000001" d="M10.1404 9.71387H9.71289V10.1442H10.1404V9.71387Z"></path>
<path fill="#000001" d="M10.1412 8.42871H9.28613V8.85903H10.1412V8.42871Z"></path>
<path fill="#000001" d="M10.1404 6.28613H9.71289V6.71645H10.1404V6.28613Z"></path>
<path fill="#000001" d="M9.71366 12.7148H9.28613V13.1423H9.71366V12.7148Z"></path>
<path fill="#000001" d="M9.71366 9.28613H9.28613V9.71364H9.71366V9.28613Z"></path>
<path fill="#000001" d="M9.71366 5.85645H9.28613V6.28395H9.71366V5.85645Z"></path>
<path fill="#000001" d="M9.2858 12.2881H8.85547V12.7156H9.2858V12.2881Z"></path>
<path fill="#000001" d="M9.71333 10.1445H8.85547V10.572H9.71333V10.1445Z"></path>
<path fill="#000001" d="M9.2858 8.8584H8.85547V9.2859H9.2858V8.8584Z"></path>
<path fill="#000001" d="M8.85623 11.8574H8.42871V12.2877H8.85623V11.8574Z"></path>
<path fill="#000001" d="M8.85623 9.28613H8.42871V10.144H8.85623V9.28613Z"></path>
<path fill="#000001" d="M8.85623 8.42871H8.42871V8.85903H8.85623V8.42871Z"></path>
<path fill="#000001" d="M8.42838 11.4287H7.99805V11.8562H8.42838V11.4287Z"></path>
<path fill="#000001" d="M7.99979 10.998H7.57227V11.4284H7.99979V10.998Z"></path>
<path fill="#000001" d="M7.57151 7.14395H7.14399V7.57146H6.71366V7.14395H6.28613V8.00177H7.99903V6.28613H7.14399V6.71645H7.57151V7.14395Z"></path>
<path fill="#000001" d="M7.5701 10.5703H7.14258V10.9978H7.5701V10.5703Z"></path>
<path fill="#000001" d="M7.14323 10.1445H6.71289V10.572H7.14323V10.1445Z"></path>
<path fill="#000001" d="M7.14323 6.71582H6.71289V7.14332H7.14323V6.71582Z"></path>
<path fill="#000001" d="M9.28723 5.42578H6.28613V5.8561H9.28723V5.42578Z"></path>
<path fill="#000001" d="M6.71365 9.71387H6.28613V10.1442H6.71365V9.71387Z"></path>
<path fill="#000001" d="M6.71365 6.28613H6.28613V6.71645H6.71365V6.28613Z"></path>
<path fill="#000001" d="M6.28494 9.28613H5.85742V9.71364H6.28494V9.28613Z"></path>
<path fill="#000001" d="M6.28494 5.85645H5.85742V6.28395H6.28494V5.85645Z"></path>
<path fill="#000001" d="M5.85709 6.28613H5.42676V9.2871H5.85709V6.28613Z"></path>
<path fill="#000001" d="M5.85709 5.42578H5.42676V5.8561H5.85709V5.42578Z"></path>
<path fill="#000001" d="M5.42752 5H5V5.4275H5.42752V5Z"></path>
</svg>
