<svg xmlns="http://www.w3.org/2000/svg" fill="none" viewBox="0 0 18 18" height="18" width="18">
<rect stroke-width="0.47" stroke="black" rx="8.765" height="17.53" width="17.53" y="0.235" x="0.235"></rect>
<path fill="#000001" d="M11.8825 7.62199H12.7977V6.70378H12.3401V6.24316H11.4219V7.16138H11.8825V7.62199Z"></path>
<path fill="#000001" d="M12.3394 8.54004H11.8818V11.7523H12.3394V8.54004Z"></path>
<path fill="#000001" d="M11.8825 11.752H11.4219V12.6702H11.8825V11.752Z"></path>
<path fill="#000001" d="M11.8825 7.62402H11.4219V8.53923H11.8825V7.62402Z"></path>
<path fill="#000001" d="M11.4215 10.834H10.9639V11.2946H11.4215V10.834Z"></path>
<path fill="#000001" d="M11.4215 9.91602H10.9639V10.3766H11.4215V9.91602Z"></path>
<path fill="#000001" d="M11.4215 9H10.9639V9.4576H11.4215V9Z"></path>
<path fill="#000001" d="M11.4211 12.6689H10.5059V13.1265H11.4211V12.6689Z"></path>
<path fill="#000001" d="M10.9635 11.752H10.5059V12.2096H10.9635V11.752Z"></path>
<path fill="#000001" d="M10.9635 8.08105H10.5059V8.53866H10.9635V8.08105Z"></path>
<path fill="#000001" d="M11.4211 7.16309H10.5059V7.6237H11.4211V7.16309Z"></path>
<path fill="#000001" d="M10.9635 4.87012H10.5059V5.78833H10.9635V4.87012Z"></path>
<path fill="#000001" d="M8.21387 10.3758H8.67147V10.8334H9.12908V10.3758H10.5079V9.9152H9.12908V9H8.67147V9.9152H8.21387V10.3758Z"></path>
<path fill="#000001" d="M10.5062 13.1279H7.29395V13.5885H10.5062V13.1279Z"></path>
<path fill="#000001" d="M10.0465 12.209H9.58887V12.6696H10.0465V12.209Z"></path>
<path fill="#000001" d="M10.0465 7.62402H9.58887V8.08162H10.0465V7.62402Z"></path>
<path fill="#000001" d="M9.1285 12.209H8.6709V12.6696H9.1285V12.209Z"></path>
<path fill="#000001" d="M9.1285 7.62402H8.6709V8.08162H9.1285V7.62402Z"></path>
<path fill="#000001" d="M8.21062 12.209H7.75V12.6696H8.21062V12.209Z"></path>
<path fill="#000001" d="M8.21062 7.62402H7.75V8.08162H8.21062V7.62402Z"></path>
<path fill="#000001" d="M10.5062 7.16276V6.70516H9.58799V6.24455H10.5062V5.78695H10.0456V4.86873H10.5062V4.41113H7.29395V4.86873H7.75155V5.78695H7.29395V6.24455H8.21217V6.70516H7.29395V7.16276H10.5062ZM9.12738 4.86873H9.58799V5.78695H9.12738V4.86873ZM9.12738 6.70516H8.66977V6.24455H9.12738V6.70516ZM8.21217 4.86873H8.66977V5.78695H8.21217V4.86873Z"></path>
<path fill="#000001" d="M7.2942 12.6689H6.37598V13.1265H7.2942V12.6689Z"></path>
<path fill="#000001" d="M7.29354 11.752H6.83594V12.2096H7.29354V11.752Z"></path>
<path fill="#000001" d="M7.29354 8.08105H6.83594V8.53866H7.29354V8.08105Z"></path>
<path fill="#000001" d="M7.29354 4.87012H6.83594V5.78833H7.29354V4.87012Z"></path>
<path fill="#000001" d="M6.83659 10.834H6.37598V11.2946H6.83659V10.834Z"></path>
<path fill="#000001" d="M6.83659 9.91602H6.37598V10.3766H6.83659V9.91602Z"></path>
<path fill="#000001" d="M6.83659 9H6.37598V9.4576H6.83659V9Z"></path>
<path fill="#000001" d="M7.2942 7.16309H6.37598V7.6237H7.2942V7.16309Z"></path>
<path fill="#000001" d="M6.37655 11.752H5.91895V12.6702H6.37655V11.752Z"></path>
<path fill="#000001" d="M6.37655 7.62402H5.91895V8.53923H6.37655V7.62402Z"></path>
<path fill="#000001" d="M5.45761 6.24316V6.70378H5V7.62199H5.91822V7.16138H6.37583V6.24316H5.45761Z"></path>
<path fill="#000001" d="M5.91765 8.54004H5.45703V11.7523H5.91765V8.54004Z"></path>
</svg>
