<svg class="w-4" width="100%" height="100%" viewBox="0 0 14 20" fill="currentColor" xmlns="http://www.w3.org/2000/svg"><path d="M8.90346 15.2381H9.85584V16.1905H8.90346V15.2381Z" fill=""></path><path fill-rule="evenodd" clip-rule="evenodd" d="M7.95108 15.2381H8.90346V14.2857H7.95108V13.3333H6.9987V12.381H6.04632V13.3333H5.09394V14.2857H4.14156V15.2381H3.18917V16.1905H4.14156V15.2381H5.09394L5.09394 16.1905H6.04632L6.04632 15.2381H6.9987L6.9987 16.1905H7.95108L7.95108 15.2381ZM6.9987 14.2857H7.95108V15.2381H6.9987V14.2857ZM6.04632 14.2857V13.3333H6.9987V14.2857H6.04632ZM6.04632 14.2857V15.2381H5.09394V14.2857H6.04632Z" fill=""></path><path d="M6.04632 7.61905V8.57143H5.09394V7.61905H6.04632Z" fill=""></path><path d="M6.04632 7.61905V6.66667H6.9987V7.61905H6.04632Z" fill=""></path><path fill-rule="evenodd" clip-rule="evenodd" d="M0.332031 0L13.6654 0V2.85714H12.713V7.61905H11.7606V8.57143H10.8082V9.52381H9.85584V10.4762H10.8082V11.4286H11.7606V12.381H12.713V17.1429H13.6654V20H0.332031L0.332031 17.1429H1.28441V12.381H2.23679L2.23679 11.4286H3.18917V10.4762H4.14156V9.52381H3.18917V8.57143H2.23679V7.61905H1.28441L1.28441 2.85714H0.332031L0.332031 0ZM12.713 1.90476V0.952381L1.28441 0.952381V1.90476L12.713 1.90476ZM12.713 18.0952H1.28441V19.0476H12.713V18.0952ZM2.23679 2.85714V6.66667H3.18917V7.61905H4.14156V8.57143H5.09394V9.52381H6.04632V10.4762H5.09394V11.4286H4.14156V12.381H3.18917V13.3333H2.23679V16.1905H3.18917V17.1429H4.14156V16.1905H5.09394V17.1429H6.04632V16.1905H6.9987V17.1429H7.95108V16.1905H8.90346V17.1429H9.85584V16.1905H10.8082V17.1429H11.7606V13.3333H10.8082V12.381H9.85584V11.4286H8.90346V8.57143H9.85584V7.61905H10.8082V6.66667H11.7606V2.85714L2.23679 2.85714Z" fill=""></path></svg>