<svg xmlns="http://www.w3.org/2000/svg" fill="none" viewBox="0 0 18 18" height="18" width="18">
<rect stroke-width="0.47" stroke="black" rx="8.765" height="17.53" width="17.53" y="0.235" x="0.235"></rect>
<path fill="#000001" d="M12.9998 7.82422H12.5303V10.1776H12.9998V7.82422Z"></path>
<path fill="#000001" d="M12.531 10.1748H12.0615V11.1168H12.531V10.1748Z"></path>
<path fill="#000001" d="M12.531 6.87891H12.0615V7.82089H12.531V6.87891Z"></path>
<path fill="#000001" d="M12.5297 6.41074V5.94129H12.9992V5.46875H10.6455V7.82217H11.1181V7.35272H11.5876V6.88019H12.0602V6.41074H12.5297Z"></path>
<path fill="#000001" d="M12.0615 11.1191H11.5889V11.5886H12.0615V11.1191Z"></path>
<path fill="#000001" d="M11.5886 11.5889H11.1191V12.0614H11.5886V11.5889Z"></path>
<path fill="#000001" d="M11.1179 12.0596H10.1758V12.529H11.1179V12.0596Z"></path>
<path fill="#000001" d="M10.1772 12.5303H8.29297V12.9997H10.1772V12.5303Z"></path>
<path fill="#000001" d="M9.70841 5H7.82422V5.46945H9.70841V5Z"></path>
<path fill="#000001" d="M7.82198 5.46875H6.87988V5.94129H7.82198V5.46875Z"></path>
<path fill="#000001" d="M6.87966 5.94141H6.41016V6.41086H6.87966V5.94141Z"></path>
<path fill="#000001" d="M6.41091 6.41016H5.94141V6.87961H6.41091V6.41016Z"></path>
<path fill="#000001" d="M5.4695 11.5862V12.0588H5V12.5282H7.35369V10.1748H6.8811V10.6443H6.4116V11.1168H5.94209V11.5862H5.4695Z"></path>
<path fill="#000001" d="M5.94232 10.1748H5.46973V11.1168H5.94232V10.1748Z"></path>
<path fill="#000001" d="M5.94232 6.87891H5.46973V7.82089H5.94232V6.87891Z"></path>
<path fill="#000001" d="M5.4695 7.82422H5V10.1776H5.4695V7.82422Z"></path>
</svg>
